<?xml version="1.0" encoding="UTF-8"?>
<!DOCTYPE svg PUBLIC "-//W3C//DTD SVG 1.1//EN" "http://www.w3.org/Graphics/SVG/1.1/DTD/svg11.dtd">
<!-- Creator: CorelDRAW X7 -->
<svg xmlns="http://www.w3.org/2000/svg" xml:space="preserve" width="44px" height="25px" version="1.1" shape-rendering="geometricPrecision" text-rendering="geometricPrecision" image-rendering="optimizeQuality" fill-rule="evenodd" clip-rule="evenodd"
viewBox="0 0 4352 2516"
 xmlns:xlink="http://www.w3.org/1999/xlink">
 <g id="Слой_x0020_1">
  <metadata id="CorelCorpID_0Corel-Layer"/>
  <g id="_402532424">
   <path fill="none" fill-rule="nonzero" stroke="black" stroke-width="116.449" d="M58 1690c0,-408 0,-816 0,-1224 0,-225 190,-408 424,-408 1129,0 2259,0 3388,0 234,0 424,183 424,408 0,408 0,816 0,1224 0,225 -190,407 -424,407 -670,0 -1341,0 -2012,0 -336,111 -672,222 -1008,333 18,-111 37,-222 55,-333 -141,0 -282,0 -423,0 -234,0 -424,-182 -424,-407z"/>
   <path fill="none" stroke="black" stroke-width="116.449" d="M1151 802c160,0 289,124 289,276 0,153 -129,276 -289,276 -160,0 -289,-123 -289,-276 0,-152 129,-276 289,-276z"/>
   <path fill="none" stroke="black" stroke-width="116.449" d="M3224 794c162,0 293,126 293,280 0,155 -131,280 -293,280 -162,0 -294,-125 -294,-280 0,-154 132,-280 294,-280z"/>
   <path fill="none" stroke="black" stroke-width="116.449" d="M2188 796c162,0 293,125 293,279 0,154 -131,279 -293,279 -161,0 -292,-125 -292,-279 0,-154 131,-279 292,-279z"/>
  </g>
 </g>
</svg>
