<?xml version="1.0" encoding="UTF-8"?>
<!DOCTYPE svg PUBLIC "-//W3C//DTD SVG 1.1//EN" "http://www.w3.org/Graphics/SVG/1.1/DTD/svg11.dtd">
<!-- Creator: CorelDRAW X7 -->
<svg xmlns="http://www.w3.org/2000/svg" xml:space="preserve" width="30px" height="30px" version="1.1" shape-rendering="geometricPrecision" text-rendering="geometricPrecision" image-rendering="optimizeQuality" fill-rule="evenodd" clip-rule="evenodd"
viewBox="0 0 354 354"
 xmlns:xlink="http://www.w3.org/1999/xlink">
 <g id="Слой_x0020_1">
  <metadata id="CorelCorpID_0Corel-Layer"/>
  <g id="_210956464">
   <rect fill="#393185" width="354" height="354" rx="24" ry="24"/>
   <path fill="#FEFEFE" fill-rule="nonzero" d="M105 138l28 0 0 -12 0 -13 0 -2c0,-12 0,-31 9,-43 9,-12 22,-20 44,-20 36,0 51,5 51,5l-7 42c0,0 -12,-3 -23,-3 -11,0 -21,3 -21,14l0 5 0 15 0 12 45 0 -3 41 -42 0 0 143 -53 0 0 -143 -28 0 0 -41z"/>
  </g>
 </g>
</svg>
