<?xml version="1.0" encoding="UTF-8"?>
<!DOCTYPE svg PUBLIC "-//W3C//DTD SVG 1.1//EN" "http://www.w3.org/Graphics/SVG/1.1/DTD/svg11.dtd">
<!-- Creator: CorelDRAW X7 -->
<svg xmlns="http://www.w3.org/2000/svg" xml:space="preserve" width="30px" height="30px" version="1.1" shape-rendering="geometricPrecision" text-rendering="geometricPrecision" image-rendering="optimizeQuality" fill-rule="evenodd" clip-rule="evenodd"
viewBox="0 0 6298 6298"
 xmlns:xlink="http://www.w3.org/1999/xlink">
 <g id="Слой_x0020_1">
  <metadata id="CorelCorpID_0Corel-Layer"/>
  <g id="_496613000">
   <rect fill="#915233" stroke="#915233" stroke-width="116.817" x="58" y="58" width="6182" height="6182" rx="412" ry="412"/>
   <path fill="#FEFEFE" d="M1630 1106l3038 0c289,0 525,236 525,524l0 3038c0,289 -236,525 -525,525l-3038 0c-288,0 -524,-236 -524,-525l0 -3038c0,-288 236,-524 524,-524zm2453 454l0 0c-101,0 -184,83 -184,184l0 440c0,101 83,184 184,184l462 0c101,0 184,-83 184,-184l0 -440c0,-101 -83,-184 -184,-184l-462 0zm648 1274l0 0 -360 0c34,111 52,229 52,351 0,679 -568,1231 -1270,1231 -702,0 -1270,-552 -1270,-1231 0,-122 18,-240 52,-351l-375 0 0 1726c0,90 73,163 162,163l2846 0c90,0 163,-73 163,-163l0 -1726zm-1578 -489l0 0c-453,0 -821,356 -821,795 0,440 368,796 821,796 453,0 821,-356 821,-796 0,-439 -368,-795 -821,-795z"/>
  </g>
 </g>
</svg>
