<?xml version="1.0" encoding="UTF-8"?>
<!DOCTYPE svg PUBLIC "-//W3C//DTD SVG 1.1//EN" "http://www.w3.org/Graphics/SVG/1.1/DTD/svg11.dtd">
<!-- Creator: CorelDRAW X7 -->
<svg xmlns="http://www.w3.org/2000/svg" xml:space="preserve" width="12px" height="14px" version="1.1" shape-rendering="geometricPrecision" text-rendering="geometricPrecision" image-rendering="optimizeQuality" fill-rule="evenodd" clip-rule="evenodd"
viewBox="0 0 112 129"
 xmlns:xlink="http://www.w3.org/1999/xlink">
 <g id="Слой_x0020_1">
  <metadata id="CorelCorpID_0Corel-Layer"/>
  <path fill="black" d="M108 123l-1 -117 -50 29c-9,6 -16,10 -25,15 -5,3 -8,5 -12,7 -5,3 -10,5 -13,9 3,3 20,12 25,14l51 29c8,5 17,9 25,14zm-108 -57c3,-4 76,-46 83,-50 7,-4 22,-15 28,-16l1 129c-6,-1 -110,-60 -112,-63z"/>
 </g>
</svg>
