<?xml version="1.0" encoding="UTF-8"?>
<!DOCTYPE svg PUBLIC "-//W3C//DTD SVG 1.1//EN" "http://www.w3.org/Graphics/SVG/1.1/DTD/svg11.dtd">
<!-- Creator: CorelDRAW X7 -->
<svg xmlns="http://www.w3.org/2000/svg" xml:space="preserve" width="30px" height="30px" version="1.1" shape-rendering="geometricPrecision" text-rendering="geometricPrecision" image-rendering="optimizeQuality" fill-rule="evenodd" clip-rule="evenodd"
viewBox="0 0 9222 9222"
 xmlns:xlink="http://www.w3.org/1999/xlink">
 <g id="Слой_x0020_1">
  <metadata id="CorelCorpID_0Corel-Layer"/>
  <g id="_325537104">
   <rect fill="#00468C" stroke="#00468C" stroke-width="171.049" x="86" y="86" width="9051" height="9051" rx="603" ry="603"/>
   <path fill="#FFA901" fill-rule="nonzero" d="M7259 3133c-136,-295 -324,-545 -564,-750 -239,-204 -522,-361 -848,-470 -326,-110 -680,-164 -1059,-164 -401,0 -781,69 -1140,207 -359,138 -675,336 -948,592 -272,256 -489,566 -650,929 -161,363 -242,770 -242,1220 0,442 70,831 210,1168 141,337 336,618 586,846 250,227 545,398 886,514 340,115 711,173 1112,173 227,0 428,-16 604,-50 175,-32 348,-90 517,-173 0,0 119,-170 51,-361 -68,-191 -243,-234 -243,-234 -124,58 -262,102 -415,131 -153,28 -289,43 -409,43 -355,0 -670,-49 -945,-146 -274,-97 -504,-235 -690,-415 -186,-179 -328,-397 -425,-653 -97,-256 -145,-545 -145,-868 0,-326 58,-628 173,-907 116,-279 276,-519 480,-722 205,-202 445,-361 722,-477 277,-116 576,-173 898,-173 281,0 543,33 787,99 244,66 455,170 635,313 180,142 321,323 424,542 103,219 155,483 155,793 0,215 -26,401 -77,557 -52,157 -119,287 -202,391 -82,103 -175,179 -279,229 -103,49 -208,74 -315,74 -108,0 -177,-43 -208,-130 -31,-87 -30,-227 3,-421l298 -1679 -434 0 -192 198c-83,-70 -173,-127 -273,-170 -99,-43 -221,-65 -365,-65 -210,0 -410,57 -598,170 -188,114 -353,263 -495,449 -143,186 -255,400 -338,641 -82,242 -124,491 -124,747 0,136 20,260 59,371 39,112 92,207 158,286 66,78 145,139 236,182 90,44 185,65 284,65 124,0 238,-19 341,-55 103,-38 199,-88 285,-152 87,-64 166,-138 239,-220 72,-83 139,-167 201,-254l25 0c-13,128 -4,235 25,322 28,87 73,157 133,211 59,53 134,91 223,114 89,23 184,34 288,34 247,0 480,-49 697,-148 216,-99 406,-234 569,-403 164,-169 292,-369 385,-601 92,-231 139,-479 139,-743 0,-376 -68,-712 -205,-1007zm-2242 1633l0 0c-46,82 -97,161 -155,235 -58,74 -118,140 -180,198 -62,58 -126,104 -192,140 -66,35 -128,52 -186,52 -136,0 -232,-43 -288,-130 -56,-87 -83,-198 -83,-335 0,-131 20,-267 62,-405 41,-138 100,-263 176,-375 77,-112 168,-202 273,-272 105,-71 220,-106 344,-106 86,0 159,13 216,37 58,25 114,60 168,106l-155 855z"/>
  </g>
 </g>
</svg>
