<?xml version="1.0" encoding="UTF-8"?>
<!DOCTYPE svg PUBLIC "-//W3C//DTD SVG 1.1//EN" "http://www.w3.org/Graphics/SVG/1.1/DTD/svg11.dtd">
<!-- Creator: CorelDRAW X7 -->
<svg xmlns="http://www.w3.org/2000/svg" xml:space="preserve" width="30px" height="30px" version="1.1" shape-rendering="geometricPrecision" text-rendering="geometricPrecision" image-rendering="optimizeQuality" fill-rule="evenodd" clip-rule="evenodd"
viewBox="0 0 8467 8467"
 xmlns:xlink="http://www.w3.org/1999/xlink">
 <g id="Слой_x0020_1">
  <metadata id="CorelCorpID_0Corel-Layer"/>
  <rect fill="#F9870D" stroke="#F9870D" stroke-width="157.044" x="79" y="79" width="8310" height="8310" rx="554" ry="554"/>
  <path fill="#FEFEFE" d="M5961 4453c-84,-170 -319,-311 -630,-66 -421,332 -1097,332 -1097,332 0,0 -677,0 -1098,-332 -311,-245 -545,-104 -630,66 -147,296 19,440 395,681 322,206 763,283 1048,312l-238 238c-335,335 -659,659 -883,883 -134,134 -134,352 0,486l40 41c67,67 155,100 243,100l1 0c88,0 175,-33 242,-100l884 -883c335,335 658,658 883,883 134,134 351,134 486,0l40 -41c134,-134 134,-352 0,-486l-883 -883 -239 -239c286,-29 722,-106 1041,-311 376,-241 543,-385 395,-681zm-1727 -2419c407,0 737,330 737,738 0,407 -330,737 -737,737 -408,0 -738,-330 -738,-737 0,-408 330,-738 738,-738zm0 2236c827,0 1498,-671 1498,-1498 0,-828 -671,-1499 -1498,-1499 -828,0 -1499,671 -1499,1499 0,827 671,1498 1499,1498z"/>
 </g>
</svg>
