<?xml version="1.0" encoding="UTF-8"?>
<!DOCTYPE svg PUBLIC "-//W3C//DTD SVG 1.1//EN" "http://www.w3.org/Graphics/SVG/1.1/DTD/svg11.dtd">
<!-- Creator: CorelDRAW X7 -->
<svg xmlns="http://www.w3.org/2000/svg" xml:space="preserve" width="31px" height="75px" version="1.1" shape-rendering="geometricPrecision" text-rendering="geometricPrecision" image-rendering="optimizeQuality" fill-rule="evenodd" clip-rule="evenodd"
viewBox="0 0 203 489"
 xmlns:xlink="http://www.w3.org/1999/xlink">
 <g id="Слой_x0020_1">
  <metadata id="CorelCorpID_0Corel-Layer"/>
  <g id="_227744680">
   <g>
    <path fill="white" d="M25 476c0,0 3,-2 4,-3 0,-1 2,-3 2,-3l-4 0c0,0 2,-2 2,-3 1,-1 2,-1 2,-1l3 -1 2 -3 3 0 -2 3 2 1 -2 4 -4 0c0,0 -2,5 -3,6 0,1 0,2 1,2 1,1 2,1 3,-1 2,-1 3,-2 3,-2l1 2c0,0 -5,4 -7,5 -2,0 -4,0 -4,-1 -1,0 1,-5 1,-5l-3 2 0 -2z"/>
    <path fill="white" d="M55 477c0,0 -6,6 -9,4 -2,-1 3,-9 3,-9 0,0 -7,8 -9,9 -1,0 -2,-5 -1,-7 1,-3 5,-9 8,-11 2,-3 6,-6 8,-6 1,0 -7,10 -8,12 -1,1 -8,6 -6,8 3,-1 9,-10 12,-7 0,1 -4,6 -4,7 0,2 3,0 3,0 1,0 2,-2 2,-2l1 2z"/>
    <path fill="white" d="M69 476c0,0 -5,7 -10,6 -4,-2 -2,-8 -1,-10 2,-3 5,-5 7,-5 2,0 3,0 3,2 0,2 -2,4 -4,5 -1,1 -4,1 -4,1 0,0 0,0 0,-1 0,-1 1,0 2,-1 1,0 2,-1 2,-2 1,-1 1,-2 1,-2 0,0 -2,0 -3,2 -2,1 -2,5 -2,6 0,2 0,3 3,2 2,-1 6,-5 6,-5l0 2z"/>
    <path fill="white" d="M99 474c0,0 -2,1 -3,1 -1,1 -1,0 -1,0 0,0 2,-2 2,-4 0,-2 -1,-2 -2,-2 -1,0 -3,2 -4,4 -1,2 1,3 1,3 0,0 -2,3 -4,3 -1,-1 0,-5 0,-5 0,0 8,-8 9,-9 1,-2 3,-5 3,-7 3,-8 -9,4 -11,7 -4,5 -4,12 -4,13 0,2 1,3 3,4 0,0 2,-1 3,-2 1,-1 2,-2 2,-2 0,0 3,0 4,-1 1,-1 2,-2 2,-2l0 -1z"/>
    <path fill="white" d="M118 476c0,0 -6,6 -7,6 -2,1 -3,0 -3,-2 0,-1 2,-4 2,-4 0,0 -5,5 -7,5 -1,0 -4,-3 -3,-5 1,-3 4,-6 6,-7 3,-1 6,-2 7,-2 2,1 2,2 1,2 0,1 -7,2 -9,4 -2,2 -3,3 -3,5 0,1 2,0 3,0 1,-1 6,-6 6,-6 0,-1 2,-2 3,-2 0,0 0,2 -1,4 -1,2 -2,3 -1,4 1,0 2,0 3,-1 2,-1 2,-2 3,-2 0,0 0,1 0,1z"/>
    <path fill="white" d="M127 476c1,0 5,-3 5,-4 0,-2 -6,1 -8,4 -2,3 -2,5 -3,5 -1,1 -2,-5 -2,-6 0,-2 6,-9 8,-12 2,-2 7,-6 9,-6 2,0 -3,6 -6,9 -3,3 -9,10 -9,10 0,0 10,-9 12,-9 2,1 3,3 1,5 -1,2 -7,4 -7,4z"/>
    <path fill="white" d="M123 478c0,0 3,4 5,4 2,1 9,-5 9,-5l-1 -3c0,0 -4,5 -6,5 -2,0 -5,-4 -5,-4l-2 3z"/>
    <path fill="white" d="M151 476c0,0 -5,7 -10,6 -5,-2 -2,-8 -1,-10 2,-3 5,-5 7,-5 2,0 3,0 3,2 0,2 -2,4 -4,5 -2,1 -5,2 -5,2 0,0 1,-1 1,-2 0,0 0,0 2,-1 1,0 1,-1 2,-2 1,-1 1,-2 1,-2 0,0 -3,0 -4,2 -1,1 -2,5 -2,6 0,2 1,3 4,2 2,-1 5,-5 5,-5l1 2z"/>
    <path fill="white" d="M157 467c1,0 0,1 0,1 0,0 2,1 3,0 2,0 2,-1 3,0 1,1 -2,4 -3,5 -1,2 -1,4 0,5 0,1 5,-3 5,-3l1 1c0,0 -5,7 -8,6 -4,0 -3,-5 -2,-6 1,-2 3,-4 3,-4 0,0 -3,1 -4,1 0,0 -3,3 -3,3l1 -3c0,0 -1,-1 -1,-2 1,-2 5,-4 5,-4z"/>
    <path fill="white" d="M183 475c0,0 -11,14 -13,14 -2,0 -1,-4 1,-7 3,-3 4,-6 4,-6 0,0 -5,6 -7,5 -2,-2 -2,-6 -1,-9 2,-2 6,-5 7,-5 1,1 -3,5 -4,7 -1,1 -1,3 -1,3 0,0 5,-2 7,-6 3,-3 4,-4 5,-3 1,1 -5,10 -6,11 0,2 0,2 0,2 0,0 7,-7 7,-7 1,0 1,1 1,1z"/>
    <polygon fill="white" points="0,435 3,392 15,392 23,422 31,392 43,392 45,435 36,435 35,401 26,434 19,434 10,401 9,435 "/>
    <polygon fill="white" fill-rule="nonzero" points="53,392 62,392 62,435 53,435 "/>
    <polygon fill="white" fill-rule="nonzero" points="70,392 70,435 70,435 70,435 96,435 96,427 79,427 79,392 "/>
    <polygon fill="white" fill-rule="nonzero" points="91,392 91,400 103,400 103,435 112,435 112,400 123,400 123,392 "/>
    <path fill="white" d="M144 391c-2,0 -4,0 -6,1 -2,1 -5,2 -7,4 -3,4 -5,9 -6,13 -1,4 -1,9 0,13 2,4 5,8 8,11 4,2 8,3 13,3 3,-1 7,-2 10,-4 4,-3 6,-9 7,-14 1,-5 1,-11 -1,-15 -2,-4 -4,-7 -7,-9 -3,-2 -6,-2 -9,-3 -1,0 -2,0 -2,0zm0 8c0,0 0,0 1,0 1,0 3,1 4,2 2,1 3,3 4,5 1,4 2,7 1,10 0,4 -2,7 -4,10 -1,1 -3,2 -5,2 -2,0 -5,0 -7,-2 -2,-1 -3,-4 -4,-7 -1,-2 -1,-5 0,-8 0,-3 1,-6 3,-9 1,-1 3,-2 4,-2 1,-1 2,-1 3,-1z"/>
    <polygon fill="white" points="169,435 169,393 176,393 192,421 192,393 199,393 199,435 191,435 176,407 176,435 "/>
   </g>
   <path fill="white" fill-rule="nonzero" d="M100 0c-2,0 -4,2 -4,5l0 24 -4 -1c0,0 0,0 0,0 -7,0 -7,9 -1,10l5 0 0 2 -5 -1c0,0 0,0 0,0 -6,0 -7,9 -1,10l6 0 0 18c-14,2 -24,14 -24,28 0,14 10,26 24,28l0 25 -39 0 0 -14 -9 0 0 48 9 0 0 -20 39 0 0 154c-33,-3 -60,-27 -63,-59l15 0 -24 -40 -24 40 16 0c4,42 41,74 85,74 44,0 81,-32 84,-74l18 0 -25 -40 -23 40 15 0c-4,32 -31,57 -65,59l0 -154 29 0 0 19 18 0 0 -47 -18 0 0 14 -29 0 0 -25c14,-2 24,-14 24,-28 0,-14 -10,-26 -24,-28l0 -16 7 0c6,1 7,-8 1,-9l-8 -1 0 -2 7 1c7,1 8,-9 2,-9l-9 -1 0 -25c0,-3 -2,-5 -5,-5zm1 81c8,0 15,7 15,15 0,6 -5,12 -11,14l0 -1c-1,0 -3,1 -4,1 -2,0 -4,-1 -5,-1l0 0c-6,-2 -10,-7 -10,-13 0,-8 6,-15 15,-15z"/>
  </g>
 </g>
</svg>
