<?xml version="1.0" encoding="UTF-8"?>
<!DOCTYPE svg PUBLIC "-//W3C//DTD SVG 1.1//EN" "http://www.w3.org/Graphics/SVG/1.1/DTD/svg11.dtd">
<!-- Creator: CorelDRAW X7 -->
<svg xmlns="http://www.w3.org/2000/svg" xml:space="preserve" width="21px" height="21px" version="1.1" shape-rendering="geometricPrecision" text-rendering="geometricPrecision" image-rendering="optimizeQuality" fill-rule="evenodd" clip-rule="evenodd"
viewBox="0 0 845 845"
 xmlns:xlink="http://www.w3.org/1999/xlink">
 <g id="Слой_x0020_1">
  <metadata id="CorelCorpID_0Corel-Layer"/>
  <path fill="#DC3324" fill-rule="nonzero" d="M845 667c0,-4 0,-8 -2,-12 -4,-13 -34,-26 -46,-32 -34,-19 -69,-38 -102,-58 -16,-9 -35,-27 -54,-27 -36,0 -90,108 -122,108 -16,0 -37,-15 -52,-23 -109,-61 -184,-136 -245,-246 -8,-14 -23,-35 -23,-51 0,-33 108,-86 108,-123 0,-18 -18,-37 -27,-53 -20,-34 -39,-68 -58,-103 -6,-12 -19,-41 -32,-45 -4,-2 -8,-2 -12,-2 -22,0 -64,9 -84,19 -29,12 -48,46 -63,73 -20,35 -31,71 -31,111 0,56 23,106 41,158 14,36 30,72 50,105 63,102 186,225 288,288 33,20 69,36 105,49 51,19 102,42 157,42 40,0 77,-12 112,-31 27,-15 61,-34 73,-64 9,-19 19,-61 19,-83z"/>
 </g>
</svg>
