<?xml version="1.0" encoding="UTF-8"?>
<!DOCTYPE svg PUBLIC "-//W3C//DTD SVG 1.1//EN" "http://www.w3.org/Graphics/SVG/1.1/DTD/svg11.dtd">
<!-- Creator: CorelDRAW X7 -->
<svg xmlns="http://www.w3.org/2000/svg" xml:space="preserve" width="18px" height="35px" version="1.1" shape-rendering="geometricPrecision" text-rendering="geometricPrecision" image-rendering="optimizeQuality" fill-rule="evenodd" clip-rule="evenodd"
viewBox="0 0 137 271"
 xmlns:xlink="http://www.w3.org/1999/xlink">
 <g id="Слой_x0020_1">
  <metadata id="CorelCorpID_0Corel-Layer"/>
  <path fill="#DC3324" fill-rule="nonzero" d="M79 265c-14,5 -30,7 -47,6 0,-9 1,-18 3,-26 3,-13 11,-27 21,-40l3 1c14,3 26,-17 36,-59 11,-44 9,-67 -5,-71l-3 0c-5,-17 -6,-32 -2,-46 1,-9 5,-17 10,-24 14,6 28,15 40,26 2,19 3,39 2,59 -2,20 -5,41 -10,62 -5,21 -11,42 -19,60 -8,19 -18,36 -29,52zm-53 4l-7 -2c-9,-2 -14,-5 -17,-9 -2,-5 -2,-12 0,-22 7,-28 20,-39 41,-34l6 1c-10,12 -17,25 -21,41 -2,9 -3,17 -2,25zm53 -195l-6 -1c-11,-3 -18,-8 -22,-16 -3,-8 -4,-19 0,-34 2,-10 6,-16 10,-19 4,-3 11,-3 21,-1l6 1c-5,9 -9,17 -11,25 -3,14 -3,29 2,45z"/>
 </g>
</svg>
