<?xml version="1.0" encoding="UTF-8"?>
<!DOCTYPE svg PUBLIC "-//W3C//DTD SVG 1.1//EN" "http://www.w3.org/Graphics/SVG/1.1/DTD/svg11.dtd">
<!-- Creator: CorelDRAW X7 -->
<svg xmlns="http://www.w3.org/2000/svg" xml:space="preserve" width="35px" height="33px" version="1.1" shape-rendering="geometricPrecision" text-rendering="geometricPrecision" image-rendering="optimizeQuality" fill-rule="evenodd" clip-rule="evenodd"
viewBox="0 0 665 621"
 xmlns:xlink="http://www.w3.org/1999/xlink">
 <g id="Слой_x0020_1">
  <metadata id="CorelCorpID_0Corel-Layer"/>
  <path fill="none" stroke="black" stroke-width="13.2584" d="M7 578c0,-243 0,-398 0,-464 0,-11 0,-20 1,-28 5,-53 29,-47 88,-46 170,0 340,1 511,1 37,3 54,23 51,62 -1,308 -2,462 -2,462 -3,34 -22,50 -58,49 -266,0 -435,0 -508,0 -31,0 -78,7 -83,-36z"/>
  <path fill="none" stroke="black" stroke-width="13.2584" d="M195 188c-38,1 -56,1 -56,1 0,37 0,56 0,56 37,0 56,0 56,0 0,-38 0,-57 0,-57z"/>
  <path fill="none" stroke="black" stroke-width="13.2584" d="M359 188c-37,1 -56,1 -56,1 0,37 0,56 0,56 38,0 56,0 56,0 0,-38 0,-57 0,-57z"/>
  <path fill="none" stroke="black" stroke-width="13.2584" d="M524 188c-37,1 -56,1 -56,1 0,37 0,56 0,56 38,0 56,0 56,0 0,-38 0,-57 0,-57z"/>
  <path fill="none" stroke="black" stroke-width="13.2584" d="M524 330c-37,1 -56,1 -56,1 0,37 0,56 0,56 38,0 56,0 56,0 0,-38 0,-57 0,-57z"/>
  <path fill="none" stroke="black" stroke-width="13.2584" d="M359 330c-38,1 -56,1 -56,1 0,37 0,56 0,56 37,0 56,0 56,0 0,-38 0,-57 0,-57z"/>
  <path fill="none" stroke="black" stroke-width="13.2584" d="M195 330c-37,1 -56,1 -56,1 0,37 0,56 0,56 37,0 56,0 56,0 0,-38 0,-57 0,-57z"/>
  <path fill="none" stroke="black" stroke-width="13.2584" d="M195 458c-37,0 -56,1 -56,1 0,37 0,56 0,56 37,0 56,0 56,0 0,-38 0,-57 0,-57z"/>
  <path fill="none" stroke="black" stroke-width="13.2584" d="M359 458c-37,0 -56,1 -56,1 0,37 0,56 0,56 38,0 56,0 56,0 0,-38 0,-57 0,-57z"/>
  <path fill="none" stroke="black" stroke-width="13.2584" d="M523 458c-37,0 -56,1 -56,1 0,37 0,56 0,56 38,0 56,0 56,0 0,-38 0,-57 0,-57z"/>
  <path fill="none" stroke="black" stroke-width="13.2584" d="M245 0c0,52 0,77 0,77"/>
  <path fill="none" stroke="black" stroke-width="13.2584" d="M445 0c0,52 0,78 0,78"/>
 </g>
</svg>
