<?xml version="1.0" encoding="UTF-8"?>
<!DOCTYPE svg PUBLIC "-//W3C//DTD SVG 1.1//EN" "http://www.w3.org/Graphics/SVG/1.1/DTD/svg11.dtd">
<!-- Creator: CorelDRAW X7 -->
<svg xmlns="http://www.w3.org/2000/svg" xml:space="preserve" width="12px" height="14px" version="1.1" shape-rendering="geometricPrecision" text-rendering="geometricPrecision" image-rendering="optimizeQuality" fill-rule="evenodd" clip-rule="evenodd"
viewBox="0 0 150 173"
 xmlns:xlink="http://www.w3.org/1999/xlink">
 <g id="Слой_x0020_1">
  <metadata id="CorelCorpID_0Corel-Layer"/>
  <path fill="black" d="M6 165l1 -157 67 40c12,7 22,12 34,19 6,4 10,6 16,10 6,3 13,6 17,11 -4,4 -27,16 -34,20l-67 38c-11,6 -24,13 -34,19zm144 -77c-3,-5 -101,-61 -111,-67 -9,-5 -29,-19 -37,-21l-2 173c9,-2 147,-81 150,-85z"/>
 </g>
</svg>
