<?xml version="1.0" encoding="UTF-8"?>
<!DOCTYPE svg PUBLIC "-//W3C//DTD SVG 1.1//EN" "http://www.w3.org/Graphics/SVG/1.1/DTD/svg11.dtd">
<!-- Creator: CorelDRAW X7 -->
<svg xmlns="http://www.w3.org/2000/svg" xml:space="preserve" width="30px" height="30px" version="1.1" shape-rendering="geometricPrecision" text-rendering="geometricPrecision" image-rendering="optimizeQuality" fill-rule="evenodd" clip-rule="evenodd"
viewBox="0 0 16048 16048"
 xmlns:xlink="http://www.w3.org/1999/xlink">
 <g id="Слой_x0020_1">
  <metadata id="CorelCorpID_0Corel-Layer"/>
  <g id="_325534776">
   <rect fill="#4FC2ED" stroke="#4FC2ED" stroke-width="297.654" x="149" y="149" width="15751" height="15751" rx="1050" ry="1050"/>
   <path fill="#FEFEFE" fill-rule="nonzero" d="M12777 9110c185,374 290,794 290,1239 0,1541 -1249,2789 -2790,2789 -477,0 -926,-119 -1318,-330 -286,52 -580,80 -881,80 -2657,0 -4811,-2154 -4811,-4810 0,-332 34,-655 98,-968 -244,-414 -384,-895 -384,-1411 0,-1540 1249,-2789 2790,-2789 546,0 1054,157 1484,428 267,-46 543,-70 823,-70 2656,0 4810,2153 4810,4810 0,354 -38,700 -111,1032zm-6143 -4194c-404,149 -718,367 -933,648 -217,282 -327,610 -327,973 0,382 105,706 311,964 204,255 482,458 827,605 337,144 761,271 1260,377 368,77 664,151 883,219 210,65 382,161 513,283 125,117 186,267 186,456 0,241 -116,437 -356,601 -245,167 -571,252 -969,252 -289,0 -524,-42 -699,-124 -173,-82 -309,-187 -403,-312 -98,-130 -191,-295 -276,-490 -77,-180 -172,-318 -283,-412 -115,-98 -258,-148 -423,-148 -202,0 -371,63 -502,187 -133,125 -201,278 -201,454 0,282 104,575 308,869 202,292 469,529 792,703 452,240 1031,362 1722,362 576,0 1082,-89 1504,-265 426,-177 754,-426 977,-741 223,-316 336,-677 336,-1074 0,-331 -65,-616 -195,-847 -130,-230 -312,-423 -543,-573 -225,-147 -502,-273 -822,-375 -317,-102 -675,-195 -1064,-279 -307,-71 -532,-126 -665,-163 -131,-36 -261,-86 -388,-150 -121,-61 -218,-134 -286,-218 -65,-79 -96,-170 -96,-280 0,-179 97,-329 298,-461 208,-137 489,-206 833,-206 372,0 642,63 804,186 166,126 311,306 431,534 104,178 197,302 287,382 97,86 236,129 415,129 196,0 362,-69 494,-206 131,-136 197,-292 197,-464 0,-179 -51,-364 -150,-549 -99,-184 -257,-361 -468,-526 -210,-164 -478,-297 -795,-396 -315,-98 -693,-148 -1122,-148 -538,0 -1012,75 -1412,223z"/>
  </g>
 </g>
</svg>
