<?xml version="1.0" encoding="UTF-8"?>
<!DOCTYPE svg PUBLIC "-//W3C//DTD SVG 1.1//EN" "http://www.w3.org/Graphics/SVG/1.1/DTD/svg11.dtd">
<!-- Creator: CorelDRAW X7 -->
<svg xmlns="http://www.w3.org/2000/svg" xml:space="preserve" width="28px" height="28px" version="1.1" shape-rendering="geometricPrecision" text-rendering="geometricPrecision" image-rendering="optimizeQuality" fill-rule="evenodd" clip-rule="evenodd"
viewBox="0 0 15879 15882"
 xmlns:xlink="http://www.w3.org/1999/xlink">
 <g id="Слой_x0020_1">
  <metadata id="CorelCorpID_0Corel-Layer"/>
  <g id="_393527416">
   <path fill="#3878C7" fill-rule="nonzero" d="M12127 9666c0,2099 -2026,3072 -3971,3072 -2326,0 -4268,-1034 -4268,-2307 0,-568 321,-1084 1044,-1084 1105,0 1210,1591 3122,1591 908,0 1497,-402 1497,-930 0,-661 -568,-766 -1488,-994l-1510 -371c-1507,-361 -2665,-982 -2665,-2720 0,-2097 2078,-2875 3866,-2875 1952,0 3928,778 3928,1967 0,599 -404,1127 -1075,1127 -1003,0 -1034,-1189 -2658,-1189 -908,0 -1489,247 -1489,794 0,602 590,735 1378,920l1074 250c1467,331 3215,951 3215,2749zm3752 2245c0,-911 -312,-1748 -828,-2421 102,-494 164,-1023 164,-1551 0,-4020 -3255,-7278 -7276,-7278 -528,0 -1053,62 -1550,167 -673,-519 -1510,-828 -2418,-828 -2192,0 -3971,1779 -3971,3968 0,911 312,1748 828,2421 -102,497 -164,1022 -164,1550 0,4024 3255,7279 7275,7279 529,0 1053,-62 1551,-164 673,516 1510,828 2418,828 2186,0 3965,-1779 3965,-3971l6 0z"/>
   <path fill="white" stroke="white" stroke-width="121.01" d="M10315 3533c-4531,-1656 -7867,1303 -6082,3827 840,1190 3188,1465 4591,1907 1967,619 -526,3111 -2716,776 -1190,-1269 -2626,-659 -2093,866 303,869 1364,1431 3008,1755 5225,687 8230,-4865 636,-6117 -2820,-465 -230,-2810 2191,-783 1541,1288 2952,-1322 465,-2231z"/>
  </g>
 </g>
</svg>
