<?xml version="1.0" encoding="UTF-8"?>
<!DOCTYPE svg PUBLIC "-//W3C//DTD SVG 1.1//EN" "http://www.w3.org/Graphics/SVG/1.1/DTD/svg11.dtd">
<!-- Creator: CorelDRAW X7 -->
<svg xmlns="http://www.w3.org/2000/svg" xml:space="preserve" width="30px" height="30px" version="1.1" shape-rendering="geometricPrecision" text-rendering="geometricPrecision" image-rendering="optimizeQuality" fill-rule="evenodd" clip-rule="evenodd"
viewBox="0 0 4962 4962"
 xmlns:xlink="http://www.w3.org/1999/xlink">
 <g id="Слой_x0020_1">
  <metadata id="CorelCorpID_0Corel-Layer"/>
  <rect fill="#42A5F4" stroke="#42A5F4" stroke-width="92.0282" x="46" y="46" width="4870" height="4870" rx="325" ry="325"/>
  <g id="_352629808">
   <path fill="#FEFEFE" fill-rule="nonzero" d="M4099 1537c-115,51 -238,85 -367,100 132,-79 233,-204 281,-353 -124,73 -260,126 -406,155 -116,-124 -282,-201 -466,-201 -352,0 -638,285 -638,638 0,50 6,99 17,145 -531,-26 -1001,-280 -1316,-667 -55,95 -86,204 -86,321 0,222 112,417 284,532 -105,-4 -203,-33 -289,-80 0,2 0,5 0,8 0,309 220,567 512,626 -54,14 -110,22 -169,22 -41,0 -81,-4 -120,-11 82,253 317,438 597,443 -219,171 -494,273 -793,273 -52,0 -103,-3 -152,-9 282,181 618,287 978,287 1174,0 1816,-973 1816,-1816 0,-28 -1,-55 -2,-83 125,-90 233,-202 319,-330z"/>
  </g>
 </g>
</svg>
