<?xml version="1.0" encoding="UTF-8"?>
<!DOCTYPE svg PUBLIC "-//W3C//DTD SVG 1.1//EN" "http://www.w3.org/Graphics/SVG/1.1/DTD/svg11.dtd">
<!-- Creator: CorelDRAW X7 -->
<svg xmlns="http://www.w3.org/2000/svg" xml:space="preserve" width="30px" height="30px" version="1.1" shape-rendering="geometricPrecision" text-rendering="geometricPrecision" image-rendering="optimizeQuality" fill-rule="evenodd" clip-rule="evenodd"
viewBox="0 0 731 731"
 xmlns:xlink="http://www.w3.org/1999/xlink">
 <g id="Слой_x0020_1">
  <metadata id="CorelCorpID_0Corel-Layer"/>
  <g id="_447305080">
   <rect fill="#26527F" width="731" height="731" rx="47" ry="47"/>
   <path fill="#FEFEFE" d="M214 174l173 0c57,0 106,28 106,85 0,47 -17,66 -53,86 3,3 24,9 30,12 11,5 17,11 25,18 20,20 23,39 23,71 0,73 -71,111 -140,111l-165 0 1 -383zm94 101l0 49c44,0 86,6 86,-42 0,-45 -47,-38 -86,-38l0 31zm0 211c49,0 109,8 110,-47 1,-58 -62,-48 -110,-48l0 95z"/>
  </g>
 </g>
</svg>
