<?xml version="1.0" encoding="UTF-8"?>
<!DOCTYPE svg PUBLIC "-//W3C//DTD SVG 1.1//EN" "http://www.w3.org/Graphics/SVG/1.1/DTD/svg11.dtd">
<!-- Creator: CorelDRAW X7 -->
<svg xmlns="http://www.w3.org/2000/svg" xml:space="preserve" width="64px" height="19px" version="1.1" shape-rendering="geometricPrecision" text-rendering="geometricPrecision" image-rendering="optimizeQuality" fill-rule="evenodd" clip-rule="evenodd"
viewBox="0 0 2294 679"
 xmlns:xlink="http://www.w3.org/1999/xlink">
 <g id="Слой_x0020_1">
  <metadata id="CorelCorpID_0Corel-Layer"/>
  <g id="_417101264">
   <path fill="none" stroke="black" stroke-width="23.8566" d="M12 61c103,379 155,568 155,568 124,-392 185,-588 185,-588 118,392 176,588 176,588 107,-389 160,-583 160,-583"/>
   <path fill="none" stroke="black" stroke-width="23.8566" d="M834 130c0,360 0,540 0,540"/>
   <path fill="none" stroke="black" stroke-width="23.8566" d="M834 422c77,-142 250,-181 276,16 8,61 9,125 0,233"/>
   <g>
    <path fill="none" stroke="black" stroke-width="23.8566" d="M1286 345c64,-87 139,-108 225,-64 100,51 70,199 66,294 -4,34 4,60 23,79"/>
    <path fill="none" stroke="black" stroke-width="23.8566" d="M1578 536c-59,94 -189,163 -286,79 -43,-38 -26,-93 37,-128 77,-44 177,-28 248,-80"/>
   </g>
   <g>
    <path fill="none" stroke="black" stroke-width="23.8566" d="M1775 151c-1,296 -2,444 -2,444 0,46 32,65 96,55"/>
    <path fill="none" stroke="black" stroke-width="23.8566" d="M1700 275c109,0 164,0 164,0"/>
   </g>
   <path fill="none" stroke="black" stroke-width="23.8566" d="M1978 260c25,-87 73,-128 143,-126 158,7 223,141 86,261 -13,9 -25,19 -35,30 -31,33 -46,73 -47,119"/>
   <path fill="none" stroke="black" stroke-width="23.8566" d="M2144 666c-42,3 -62,0 -62,0 0,0 0,-15 1,-54 41,0 61,0 61,0 0,36 0,54 0,54z"/>
  </g>
 </g>
</svg>
