<?xml version="1.0" encoding="UTF-8"?>
<!DOCTYPE svg PUBLIC "-//W3C//DTD SVG 1.1//EN" "http://www.w3.org/Graphics/SVG/1.1/DTD/svg11.dtd">
<!-- Creator: CorelDRAW X7 -->
<svg xmlns="http://www.w3.org/2000/svg" xml:space="preserve" width="71px" height="19px" version="1.1" shape-rendering="geometricPrecision" text-rendering="geometricPrecision" image-rendering="optimizeQuality" fill-rule="evenodd" clip-rule="evenodd"
viewBox="0 0 7055 1860"
 xmlns:xlink="http://www.w3.org/1999/xlink">
 <g id="Слой_x0020_1">
  <metadata id="CorelCorpID_0Corel-Layer"/>
  <path fill="black" fill-rule="nonzero" stroke="white" stroke-width="23.7558" d="M484 1821l-469 -1779 245 0 266 1166c29,123 55,244 77,364 47,-190 74,-299 82,-328l336 -1202 284 0 255 900c63,224 109,434 139,630 24,-112 54,-241 91,-386l278 -1144 236 0 -487 1779 -229 0 -373 -1356c-32,-113 -51,-183 -58,-208 -20,81 -38,150 -54,208l-373 1356 -246 0zm2011 0l0 -1779 219 0 0 640c101,-119 229,-178 384,-178 95,0 177,19 248,56 70,38 120,90 150,156 30,66 45,163 45,289l0 816 -219 0 0 -816c0,-108 -23,-188 -70,-238 -47,-49 -113,-74 -200,-74 -64,0 -124,16 -181,50 -57,33 -97,79 -121,137 -24,57 -36,136 -36,237l0 704 -219 0zm2224 -162c-81,70 -159,118 -234,147 -75,28 -155,42 -241,42 -142,0 -251,-34 -327,-103 -76,-69 -115,-157 -115,-265 0,-62 15,-120 43,-172 29,-52 67,-94 114,-125 46,-32 99,-56 157,-72 43,-11 108,-22 195,-33 176,-20 306,-46 390,-75 1,-29 1,-49 1,-56 0,-89 -21,-152 -62,-188 -56,-49 -139,-74 -249,-74 -104,0 -180,19 -229,55 -49,36 -85,99 -109,191l-213 -30c19,-91 51,-165 96,-222 45,-56 109,-99 194,-130 84,-30 182,-45 293,-45 110,0 200,13 269,39 69,26 120,58 152,98 32,39 55,89 68,149 7,37 11,104 11,201l0 289c0,203 5,331 14,385 9,54 27,106 53,156l-228 0c-22,-46 -36,-100 -43,-162zm-17 -484c-80,32 -199,59 -358,82 -90,13 -154,27 -191,43 -37,16 -66,40 -86,71 -21,31 -31,65 -31,103 0,58 22,106 66,145 45,38 109,58 194,58 84,0 159,-18 225,-55 65,-37 114,-87 145,-150 23,-50 35,-122 35,-218l1 -79zm1032 451l29 193c-61,13 -116,19 -164,19 -79,0 -140,-12 -184,-37 -44,-26 -74,-58 -92,-99 -18,-41 -27,-128 -27,-259l0 -743 -161 0 0 -169 161 0 0 -319 219 -131 0 450 219 0 0 169 -219 0 0 756c0,62 4,102 12,120 7,18 19,32 37,43 17,10 42,16 74,16 24,0 56,-3 96,-9zm625 -242c0,-29 -1,-51 -1,-66 0,-86 12,-159 37,-221 17,-48 46,-95 86,-143 29,-34 81,-85 157,-151 75,-67 124,-120 147,-160 23,-40 34,-83 34,-130 0,-86 -33,-161 -99,-225 -67,-65 -148,-97 -244,-97 -93,0 -170,29 -233,88 -62,58 -103,150 -122,275l-224 -28c20,-166 80,-293 180,-382 100,-88 231,-132 395,-132 174,0 312,47 416,142 103,95 155,209 155,344 0,78 -18,150 -55,215 -36,66 -108,145 -214,239 -71,63 -117,110 -139,140 -22,29 -38,64 -49,103 -10,38 -16,101 -18,189l-209 0zm-39 437l0 -249 248 0 0 249 -248 0z"/>
 </g>
</svg>
